<?xml version="1.0" encoding="utf-8"?>
<!-- Generator: Adobe Illustrator 17.1.0, SVG Export Plug-In . SVG Version: 6.00 Build 0)  -->
<!DOCTYPE svg PUBLIC "-//W3C//DTD SVG 1.1//EN" "http://www.w3.org/Graphics/SVG/1.1/DTD/svg11.dtd">
<svg version="1.1" id="Style_x5F_Tile_x5F_Template_xA0_Image_1_"
	 xmlns="http://www.w3.org/2000/svg" xmlns:xlink="http://www.w3.org/1999/xlink" x="0px" y="0px" viewBox="0 0 150 150"
	 enable-background="new 0 0 150 150" xml:space="preserve">
<g id="runner">
</g>
<rect y="0" fill="none" width="150" height="150"/>
<g>
	<path d="M91.1,54.6c0-7.7-6.2-13.8-13.8-13.8c-7.6,0-13.8,6.2-13.8,13.8c0,7.6,6.2,13.8,13.8,13.8C84.9,68.5,91.1,62.3,91.1,54.6z"
		/>
	<path d="M46.5,37.7c0-3.6-2.9-6.4-6.4-6.4c-3.6,0-6.4,2.9-6.4,6.4c0,3.6,2.9,6.4,6.4,6.4C43.6,44.2,46.5,41.3,46.5,37.7z"/>
	<path d="M33.6,47.6h12.9c0,0,5.5,26,30.7,26c25.2,0,39.1,12.1,39.1,45.1L91.1,97.4l-27.7,0.2C63.4,97.6,33.6,75.4,33.6,47.6z"/>
	<polygon points="46.5,101.1 91.1,101.1 110.1,118.7 46.5,118.7 	"/>
</g>
</svg>
