<?xml version="1.0" encoding="utf-8"?>
<!-- Generator: Adobe Illustrator 17.1.0, SVG Export Plug-In . SVG Version: 6.00 Build 0)  -->
<!DOCTYPE svg PUBLIC "-//W3C//DTD SVG 1.1//EN" "http://www.w3.org/Graphics/SVG/1.1/DTD/svg11.dtd">
<svg version="1.1" id="Style_x5F_Tile_x5F_Template_xA0_Image_1_"
	 xmlns="http://www.w3.org/2000/svg" xmlns:xlink="http://www.w3.org/1999/xlink" x="0px" y="0px" viewBox="0 0 150 150"
	 enable-background="new 0 0 150 150" xml:space="preserve">
<symbol  id="foodtruck" viewBox="-49.1 -43.7 98.3 87.3">
	<g>
		<path d="M49.1-30.5c0-1.3-1.1-2.4-2.4-2.4h-93.5c-1.3,0-2.4,1.1-2.4,2.4v41c0,1.3,1.1,2.4,2.4,2.4h77.6c1.3,0,2.6-1,2.9-2.3
			L37.2-7c0.3-1.3,1.4-2.9,2.5-3.6l7.4-4.7c1.1-0.7,2-2.4,2-3.7V-30.5z"/>
	</g>
	<path fill="#FFFFFF" d="M-15.5-32.9c0,5.9-4.8,10.7-10.7,10.7c-5.9,0-10.7-4.8-10.7-10.7c0-5.9,4.8-10.7,10.7-10.7
		C-20.3-43.7-15.5-38.8-15.5-32.9z"/>
	<path d="M-17.8-32.9c0,4.6-3.7,8.4-8.4,8.4c-4.6,0-8.4-3.7-8.4-8.4c0-4.6,3.7-8.4,8.4-8.4C-21.6-41.3-17.8-37.5-17.8-32.9z"/>
	<path fill="#FFFFFF" d="M44.1-32.9c0,5.9-4.8,10.7-10.7,10.7c-5.9,0-10.7-4.8-10.7-10.7c0-5.9,4.8-10.7,10.7-10.7
		C39.3-43.7,44.1-38.8,44.1-32.9z"/>
	<path d="M41.8-32.9c0,4.6-3.7,8.4-8.4,8.4S25-28.3,25-32.9c0-4.6,3.7-8.4,8.4-8.4S41.8-37.5,41.8-32.9z"/>
	<g>
		<path fill="#FFFFFF" d="M4.8-9.5c0-1.8-1.4-3.2-3.2-3.2h-28.9c-1.8,0-3.2,1.4-3.2,3.2V2.6c0,1.8,1.4,3.2,3.2,3.2H1.6
			c1.8,0,3.2-1.4,3.2-3.2V-9.5z"/>
	</g>
	<g>
		<path fill="#FFFFFF" d="M22.7,3.1c0,1.3,1.1,2.4,2.4,2.4h5c1.3,0,2.6-1,2.8-2.3l2-10.2c0.3-1.3-0.6-2.3-1.9-2.3H25
			c-1.3,0-2.4,1.1-2.4,2.4V3.1z"/>
	</g>
	<g>
		<path d="M-26,16c0-1-0.8-1.8-1.8-1.8h-5.4c-1,0-1.8,0.8-1.8,1.8v2.7c0,1,0.8,1.8,1.8,1.8h5.4c1,0,1.8-0.8,1.8-1.8V16z"/>
	</g>
	<path d="M-30.2,22.9c0,0-4.8,3.7-1.2,9.8c3.6,6.1,0.6,11,0.6,11s7.2-5,3.2-12.7C-31.7,23.2-30.2,22.9-30.2,22.9z"/>
	<polygon points="-27.5,12.2 -33.3,12.2 -33.3,16.3 -27.5,16.3 	"/>
</symbol>
<g id="runner">
</g>
<use xlink:href="#foodtruck"  width="98.3" height="87.3" x="-49.1" y="-43.7" transform="matrix(1.1519 0 0 -1.1519 74.7221 67.7633)" overflow="visible"/>
<rect y="0" fill="none" width="150" height="150"/>
</svg>
