<?xml version="1.0" encoding="utf-8"?>
<!-- Generator: Adobe Illustrator 17.1.0, SVG Export Plug-In . SVG Version: 6.00 Build 0)  -->
<!DOCTYPE svg PUBLIC "-//W3C//DTD SVG 1.1//EN" "http://www.w3.org/Graphics/SVG/1.1/DTD/svg11.dtd">
<svg version="1.1" id="Style_x5F_Tile_x5F_Template_xA0_Image_1_"
	 xmlns="http://www.w3.org/2000/svg" xmlns:xlink="http://www.w3.org/1999/xlink" x="0px" y="0px" viewBox="0 0 150 150"
	 enable-background="new 0 0 150 150" xml:space="preserve">
<symbol  id="art" viewBox="-58.1 -46.5 116.2 93">
	<polygon points="-42.9,-29 -58.1,-43.8 -58.1,44.3 -42.9,29.6 	"/>
	<polygon points="42.9,-29 58.1,-43.8 58.1,44.3 42.9,29.6 	"/>
	<polygon points="41.3,31.4 56,46.5 -56,46.5 -41.3,31.4 	"/>
	<polygon points="41.3,-31.4 56,-46.5 -56,-46.5 -41.3,-31.4 	"/>
	<polygon points="-35.4,-24.5 -21,-5.1 -11.7,-11.7 16.5,13.7 35.4,-7.1 35.4,-24.5 	"/>
	<path d="M-9.9,13.4c0,4.6-3.7,8.3-8.3,8.3c-4.6,0-8.3-3.7-8.3-8.3c0-4.6,3.7-8.3,8.3-8.3C-13.7,5-9.9,8.8-9.9,13.4z"/>
</symbol>
<g id="runner">
</g>
<use xlink:href="#art"  width="116.2" height="93" x="-58.1" y="-46.5" transform="matrix(0.9752 0 0 -0.9752 75.4053 75)" overflow="visible"/>
<rect y="0" fill="none" width="150" height="150"/>
</svg>
