<?xml version="1.0" encoding="utf-8"?>
<!-- Generator: Adobe Illustrator 17.1.0, SVG Export Plug-In . SVG Version: 6.00 Build 0)  -->
<!DOCTYPE svg PUBLIC "-//W3C//DTD SVG 1.1//EN" "http://www.w3.org/Graphics/SVG/1.1/DTD/svg11.dtd">
<svg version="1.1" id="Style_x5F_Tile_x5F_Template_xA0_Image_1_"
	 xmlns="http://www.w3.org/2000/svg" xmlns:xlink="http://www.w3.org/1999/xlink" x="0px" y="0px" viewBox="0 0 150 150"
	 enable-background="new 0 0 150 150" xml:space="preserve">
<g id="runner">
</g>
<rect y="0" fill="none" width="150" height="150"/>
<path d="M54.5,42.3V59v0.8v32.5c-2.6-1.2-5.7-1.6-9.1-0.7c-8.5,2.2-15.3,10.9-15.3,19.3s6.9,13.5,15.3,11.3
	c8.5-2.2,15.3-10.9,15.3-19.3V58.1l44.9-11.8v32.5c-2.6-1.2-5.7-1.6-9.1-0.7C88,80.4,81.1,89,81.1,97.5c0,8.5,6.9,13.5,15.3,11.3
	c8.5-2.2,15.3-10.9,15.3-19.3V44.7v-1V27.3L54.5,42.3z"/>
</svg>
