<?xml version="1.0" encoding="utf-8"?>
<!-- Generator: Adobe Illustrator 17.1.0, SVG Export Plug-In . SVG Version: 6.00 Build 0)  -->
<!DOCTYPE svg PUBLIC "-//W3C//DTD SVG 1.1//EN" "http://www.w3.org/Graphics/SVG/1.1/DTD/svg11.dtd">
<svg version="1.1" id="Style_x5F_Tile_x5F_Template_xA0_Image_1_"
	 xmlns="http://www.w3.org/2000/svg" xmlns:xlink="http://www.w3.org/1999/xlink" x="0px" y="0px" viewBox="0 0 150 150"
	 enable-background="new 0 0 150 150" xml:space="preserve">
<g id="runner">
	<path d="M128.8,73.2c-0.3,2.9-2.8,5.1-5.6,5.1c-0.2,0-0.4,0-0.6,0l-18.4-1.9c-2.4-0.3-4.4-2-4.9-4.4l-3.1-14.1L84.1,75l19.1,14.6
		c2,1.5,2.8,4.3,1.8,6.6l-12.3,30.4c-0.9,2.2-3,3.5-5.2,3.5c-0.7,0-1.4-0.1-2.1-0.4c-2.9-1.2-4.3-4.5-3.1-7.4L92.9,96L72.2,80.1
		l-6.8-4.4c-3.1-2-4.3-6.4-2.5-9.7l11.4-21.7c0.2-0.3,0.4-0.6,0.6-0.9l-12-3.8l-11.9,7.5c-2.6,1.7-6.1,0.9-7.8-1.7
		c-1.7-2.6-0.9-6.1,1.7-7.8l14.1-9c1.4-0.9,3.1-1.1,4.7-0.6l15.5,4.8c0.2,0.1,0.5,0.2,0.7,0.3l22.5,10.6c1.6,0.7,2.7,2.2,3.1,3.9
		l3.9,17.9l14.4,1.5C126.9,67.3,129.1,70.1,128.8,73.2z M57.8,82l-12,13.3l-22.4,6.1c-3,0.8-4.8,3.9-4,6.9c0.7,2.5,3,4.2,5.5,4.2
		c0.5,0,1-0.1,1.5-0.2l24-6.5c1-0.3,2-0.9,2.7-1.7l13.1-14.5c2.1-2.3,1.9-5.9-0.4-8C63.5,79.5,59.9,79.7,57.8,82z M98,36.4
		c5.3,1,10.4-2.6,11.4-7.9c1-5.3-2.6-10.4-7.9-11.4c-5.3-1-10.4,2.6-11.4,7.9C89.2,30.3,92.7,35.4,98,36.4z"/>
</g>
<rect y="0" fill="none" width="150" height="150"/>
</svg>
