<?xml version="1.0" encoding="utf-8"?>
<!-- Generator: Adobe Illustrator 17.1.0, SVG Export Plug-In . SVG Version: 6.00 Build 0)  -->
<!DOCTYPE svg PUBLIC "-//W3C//DTD SVG 1.1//EN" "http://www.w3.org/Graphics/SVG/1.1/DTD/svg11.dtd">
<svg version="1.1" id="Style_x5F_Tile_x5F_Template_xA0_Image_1_"
	 xmlns="http://www.w3.org/2000/svg" xmlns:xlink="http://www.w3.org/1999/xlink" x="0px" y="0px" viewBox="0 0 150 150"
	 enable-background="new 0 0 150 150" xml:space="preserve">
<symbol  id="fireworks" viewBox="-64.4 -64.4 128.9 128.9">
	<g>
		<path fill="#231F20" d="M-0.2,49.9c4,0,7.3,3.3,7.3,7.3c0,4-3.3,7.3-7.3,7.3c-4,0-7.3-3.3-7.3-7.3C-7.4,53.2-4.2,49.9-0.2,49.9z"
			/>
		<path fill="#231F20" d="M57.2,7.4c-4,0-7.3-3.3-7.3-7.3c0-4,3.3-7.3,7.3-7.3c4,0,7.3,3.3,7.3,7.3C64.4,4.2,61.2,7.4,57.2,7.4z"/>
		<path fill="#231F20" d="M0.2-49.9c-4,0-7.3-3.3-7.3-7.3c0-4,3.3-7.3,7.3-7.3c4,0,7.3,3.3,7.3,7.3C7.4-53.2,4.2-49.9,0.2-49.9z"/>
		<path fill="#231F20" d="M-57.2,7.1c-4,0-7.3-3.3-7.3-7.3c0-4,3.3-7.3,7.3-7.3c4,0,7.3,3.3,7.3,7.3C-49.9,3.9-53.2,7.1-57.2,7.1z"
			/>
		<path fill="#231F20" d="M-35.4,35.2c2.8,2.8,2.8,7.4,0,10.3c-2.8,2.8-7.4,2.8-10.3,0c-2.8-2.8-2.8-7.4,0-10.3
			C-42.8,32.3-38.2,32.3-35.4,35.2z"/>
		<path fill="#231F20" d="M45.5,35.4c2.8,2.8,2.8,7.4,0,10.3c-2.8,2.8-7.4,2.8-10.3,0c-2.8-2.8-2.8-7.4,0-10.3
			C38,32.6,42.6,32.6,45.5,35.4z"/>
		<path fill="#231F20" d="M30.8-20.4L13-5.3L36.3-7c0.3,0,0.7,0,1.1,0c3.9,0.3,6.9,3.8,6.6,7.7c-0.3,3.9-3.8,6.9-7.7,6.6L12.9,5.4
			l17.7,15.3c0.3,0.2,0.5,0.5,0.8,0.8c2.6,3,2.2,7.5-0.8,10.1s-7.5,2.2-10.1-0.8L5.3,13L7,36.3c0,0.3,0,0.7,0,1.1
			c-0.3,3.9-3.8,6.9-7.7,6.6c-3.9-0.3-6.9-3.8-6.6-7.7l1.9-23.3l-15.3,17.7c-0.2,0.3-0.5,0.5-0.8,0.8c-3,2.6-7.5,2.2-10.1-0.8
			s-2.2-7.5,0.8-10.1L-13,5.3L-36.3,7c-0.3,0-0.7,0-1.1,0c-3.9-0.3-6.9-3.8-6.6-7.7c0.3-3.9,3.8-6.9,7.7-6.6l23.3,1.9l-17.7-15.3
			c-0.3-0.2-0.5-0.5-0.8-0.8c-2.6-3-2.2-7.5,0.8-10.1c3-2.6,7.5-2.2,10.1,0.8L-5.3-13L-7-36.3c0-0.3,0-0.7,0-1.1
			c0.3-3.9,3.8-6.9,7.7-6.6c3.9,0.3,6.9,3.8,6.6,7.7L5.4-12.9l15.3-17.7c0.2-0.3,0.5-0.5,0.8-0.8c3-2.6,7.5-2.2,10.1,0.8
			C34.1-27.5,33.8-23,30.8-20.4z"/>
		<path fill="#231F20" d="M35.4-35.2c-2.8-2.8-2.8-7.4,0-10.3c2.8-2.8,7.4-2.8,10.3,0c2.8,2.8,2.8,7.4,0,10.3
			C42.8-32.3,38.2-32.3,35.4-35.2z"/>
		<path fill="#231F20" d="M-45.5-35.4c-2.8-2.8-2.8-7.4,0-10.3c2.8-2.8,7.4-2.8,10.3,0c2.8,2.8,2.8,7.4,0,10.3
			C-38-32.6-42.6-32.6-45.5-35.4z"/>
	</g>
</symbol>
<use xlink:href="#fireworks"  width="128.9" height="128.9" x="-64.4" y="-64.4" transform="matrix(0.8962 0 0 -0.8962 74.1904 73.7042)" overflow="visible"/>
<g id="runner">
</g>
<rect x="-0.7" y="0" fill="none" width="150" height="150"/>
</svg>
