<?xml version="1.0" encoding="utf-8"?>
<!-- Generator: Adobe Illustrator 17.1.0, SVG Export Plug-In . SVG Version: 6.00 Build 0)  -->
<!DOCTYPE svg PUBLIC "-//W3C//DTD SVG 1.1//EN" "http://www.w3.org/Graphics/SVG/1.1/DTD/svg11.dtd">
<svg version="1.1" id="Style_x5F_Tile_x5F_Template_xA0_Image_1_"
	 xmlns="http://www.w3.org/2000/svg" xmlns:xlink="http://www.w3.org/1999/xlink" x="0px" y="0px" viewBox="0 0 150 150"
	 enable-background="new 0 0 150 150" xml:space="preserve">
<symbol  id="New_Symbol_4" viewBox="-58.6 -72.7 117.2 145.4">
	<path d="M58.6-14.1c0,32.4-26.2,58.6-58.6,58.6c-32.4,0-58.6-26.2-58.6-58.6c0-32.4,26.2-58.6,58.6-58.6
		C32.4-72.7,58.6-46.4,58.6-14.1z"/>
	<g>
		
			<path fill="none" stroke="#000000" stroke-width="13.8134" stroke-linecap="round" stroke-linejoin="round" stroke-miterlimit="10" d="
			M-18.6,22.6l-20.6,27.6c0,0,6.4,15.5,41.2,15.5"/>
		
			<path fill="none" stroke="#000000" stroke-width="13.8134" stroke-linecap="round" stroke-linejoin="round" stroke-miterlimit="10" d="
			M18.6,22.6l20.6,27.6c0,0-6.4,15.5-41.2,15.5"/>
	</g>
</symbol>
<g id="runner">
</g>
<use xlink:href="#New_Symbol_4"  width="117.2" height="145.4" x="-58.6" y="-72.7" transform="matrix(0.7031 0 0 -0.7031 75.4053 75)" overflow="visible"/>
<rect x="0.4" y="0" fill="none" width="150" height="150"/>
</svg>
